Coordinates
version=1
nRows=10
nColumns=63
inDegrees=yes

Units are S.I. units (second, meters, Newtons, ...)
If the header above contains a line with 'inDegrees', this indicates whether rotational values are in degrees (yes) or radians (no).

endheader
time	pelvis_tilt	pelvis_list	pelvis_rotation	pelvis_tx	pelvis_ty	pelvis_tz	hip_flexion_r	hip_adduction_r	hip_rotation_r	knee_angle_r	knee_angle_r_beta	ankle_angle_r	subtalar_angle_r	mtp_angle_r	hip_flexion_l	hip_adduction_l	hip_rotation_l	knee_angle_l	knee_angle_l_beta	ankle_angle_l	subtalar_angle_l	mtp_angle_l	L5_S1_Flex_Ext	L5_S1_Lat_Bending	L5_S1_axial_rotation	L4_L5_Flex_Ext	L4_L5_Lat_Bending	L4_L5_axial_rotation	L3_L4_Flex_Ext	L3_L4_Lat_Bending	L3_L4_axial_rotation	L2_L3_Flex_Ext	L2_L3_Lat_Bending	L2_L3_axial_rotation	L1_L2_Flex_Ext	L1_L2_Lat_Bending	L1_L2_axial_rotation	L1_T12_Flex_Ext	L1_T12_Lat_Bending	L1_T12_axial_rotation	Abs_r3	Abs_r2	Abs_r1	Abs_t1	Abs_t2	neck_flexion	neck_bending	neck_rotation	arm_flex_r	arm_add_r	arm_rot_r	elbow_flex_r	pro_sup_r	wrist_flex_r	wrist_dev_r	arm_flex_l	arm_add_l	arm_rot_l	elbow_flex_l	pro_sup_l	wrist_flex_l	wrist_dev_l
      0.00800000	    -40.85131472	      2.48092590	     -1.61109549	     -0.18151794	      1.09538883	     -0.00936548	     79.43172756	     -0.90183801	      1.05469864	     44.66884252	      0.77961838	      5.58846346	     -6.09556685	      0.00000000	    113.61213630	     -3.12356575	      6.74596616	    113.30858895	      1.97760795	     14.32653680	     -4.48546795	      0.00000000	     -0.08064690	     -0.59352601	      0.34760320	     -0.14976936	     -0.78938959	      0.36932840	     -0.13249479	     -1.44309914	      0.36932840	     -0.09217134	     -1.44309914	      0.30415280	     -0.07488871	     -1.21031824	      0.28242760	     -0.04608164	     -0.91937179	      0.26070240	     -0.57605275	     -6.71408492	      1.93326470	      0.00000000	      0.00000000	     -0.00000000	      0.00000000	      0.00000000	     60.22171144	     -3.37901206	     13.61080364	     32.12601753	     23.96333919	      0.00000000	      5.50059271	     67.79292818	     -3.50742602	     26.83074852	     23.86090120	     43.85786723	      0.00000000	      5.50059271
      0.01700000	    -40.79430473	      2.77624855	     -1.83503710	     -0.18003854	      1.09547252	     -0.00912485	     77.54700460	     -1.00600023	      0.37371975	     43.96247474	      0.76728993	      6.15103887	     -5.94691636	      0.00000000	    115.41320486	     -3.17214190	      6.68786205	    113.62485434	      1.98312782	     15.67458019	     -3.95285759	      0.00000000	     -0.08396459	     -0.63168418	      0.45529532	     -0.15593064	     -0.84013995	      0.48375128	     -0.13794543	     -1.53587690	      0.48375128	     -0.09596313	     -1.53587690	      0.39838341	     -0.07796952	     -1.28813037	      0.36992745	     -0.04797737	     -0.97847879	      0.34147149	     -0.59975068	     -7.14573773	      2.53221601	      0.00000000	      0.00000000	     -0.00000000	      0.00000000	      0.00000000	     60.04246320	     -3.38778126	     14.02319897	     32.73611312	     24.01488101	      0.00000000	      5.48224113	     67.56362592	     -3.28678430	     27.13784601	     24.14573172	     43.97267253	      0.00000000	      5.48224113
      0.02500000	    -40.76033523	      2.77883925	     -1.92472154	     -0.17996251	      1.09557951	     -0.00891132	     77.21608989	     -0.93098081	      0.35225623	     44.25816169	      0.77245064	      6.38071523	     -5.99900094	      0.00000000	    115.81190273	     -3.25068116	      6.68195648	    113.36379466	      1.97857147	     16.15602746	     -3.89933000	      0.00000000	     -0.08468971	     -0.63379168	      0.46758841	     -0.15727725	     -0.84294294	      0.49681269	     -0.13913672	     -1.54100110	      0.49681269	     -0.09679186	     -1.54100110	      0.40913986	     -0.07864286	     -1.29242800	      0.37991558	     -0.04839170	     -0.98174332	      0.35069131	     -0.60493010	     -7.16957828	      2.60058646	      0.00000000	      0.00000000	     -0.00000000	      0.00000000	      0.00000000	     60.08103661	     -3.33671319	     14.05915911	     32.54934812	     24.03183070	      0.00000000	      5.47571660	     67.54531619	     -3.31028724	     27.18314891	     24.11833193	     43.99904837	      0.00000000	      5.47571660
      0.03300000	    -40.75139705	      2.76176168	     -2.01604859	     -0.17999318	      1.09589805	     -0.00860857	     76.85207140	     -0.83717137	      0.34858208	     44.52957731	      0.77718774	      6.45285393	     -5.99895250	      0.00000000	    116.25756574	     -3.34943920	      6.68923388	    112.93092572	      1.97101648	     16.37119552	     -3.88761319	      0.00000000	     -0.08493965	     -0.63664276	      0.47529037	     -0.15774142	     -0.84673487	      0.50499602	     -0.13954734	     -1.54793320	      0.50499602	     -0.09707752	     -1.54793320	      0.41587908	     -0.07887495	     -1.29824191	      0.38617343	     -0.04853451	     -0.98615963	      0.35646778	     -0.60671539	     -7.20183020	      2.64342247	      0.00000000	      0.00000000	     -0.00000000	      0.00000000	      0.00000000	     60.04648008	     -3.31649446	     14.06308445	     32.49800544	     24.06264098	      0.00000000	      5.47338400	     67.53360347	     -3.34177779	     27.18781395	     24.13206117	     44.00436518	      0.00000000	      5.47338400
      0.04200000	    -40.70534899	      2.71768804	     -2.09989476	     -0.17997757	      1.09600024	     -0.00838549	     76.60423567	     -0.70324266	      0.52856435	     45.28145758	      0.79031052	      6.72499652	     -6.25167581	      0.00000000	    116.58513045	     -3.40499761	      6.72672987	    112.40316743	      1.96180536	     17.82331090	     -3.51432141	      0.00000000	     -0.08571662	     -0.63437482	      0.47536538	     -0.15918434	     -0.84371851	      0.50507572	     -0.14082384	     -1.54241894	      0.50507572	     -0.09796553	     -1.54241894	      0.41594471	     -0.07959646	     -1.29361714	      0.38623437	     -0.04897848	     -0.98264660	      0.35652404	     -0.61226526	     -7.17617485	      2.64383965	      0.00000000	      0.00000000	     -0.00000000	      0.00000000	      0.00000000	     60.17274835	     -3.19970818	     14.06606544	     32.05063487	     24.04041129	      0.00000000	      5.45753384	     67.55419437	     -3.38280744	     27.30593009	     23.94450835	     44.07318087	      0.00000000	      5.45753384
      0.05000000	    -40.70193242	      2.60573428	     -2.23073038	     -0.18010260	      1.09619062	     -0.00811366	     76.41203693	     -0.51398464	      0.64938469	     46.13071292	      0.80513283	      6.87721290	     -6.35989363	      0.00000000	    117.02151300	     -3.48322988	      6.83535144	    111.74505191	      1.95031908	     18.37480581	     -3.53583425	      0.00000000	     -0.08473344	     -0.62597398	      0.48403194	     -0.15735847	     -0.83254539	      0.51428393	     -0.13920857	     -1.52199314	      0.51428393	     -0.09684185	     -1.52199314	      0.42352795	     -0.07868347	     -1.27648614	      0.39327595	     -0.04841669	     -0.96963370	      0.36302395	     -0.60524248	     -7.08114287	      2.69204043	      0.00000000	      0.00000000	     -0.00000000	      0.00000000	      0.00000000	     60.19977282	     -3.16814318	     14.03347276	     31.90945210	     24.05900191	      0.00000000	      5.45257151	     67.55876231	     -3.40011552	     27.32625486	     23.90844783	     44.08898459	      0.00000000	      5.45257151
      0.05800000	    -40.71202461	      2.47196428	     -2.34710807	     -0.18030338	      1.09640226	     -0.00784996	     76.28339996	     -0.32029170	      0.80299427	     47.13467673	      0.82265530	      7.00524593	     -6.50342717	      0.00000000	    117.40254270	     -3.54551718	      6.94847886	    110.92957518	      1.93608632	     19.01559021	     -3.57511581	      0.00000000	     -0.08466308	     -0.61638616	      0.48621954	     -0.15722781	     -0.81979359	      0.51660826	     -0.13909298	     -1.49868130	      0.51660826	     -0.09676144	     -1.49868130	      0.42544210	     -0.07861814	     -1.25693465	      0.39505338	     -0.04837649	     -0.95478216	      0.36466466	     -0.60473994	     -6.97268348	      2.70420723	      0.00000000	      0.00000000	     -0.00000000	      0.00000000	      0.00000000	     60.26515521	     -3.11781482	     13.98913506	     31.74405131	     24.08093827	      0.00000000	      5.44787594	     67.60196573	     -3.41915507	     27.33093742	     23.85588565	     44.10068225	      0.00000000	      5.44787594
      0.06700000	    -40.73196662	      2.32403410	     -2.46394795	     -0.18050782	      1.09666036	     -0.00757813	     76.22723433	     -0.11225610	      0.96646852	     48.29374252	      0.84288482	      7.10747758	     -6.67125865	      0.00000000	    117.69460771	     -3.59880995	      7.07848635	    109.95774828	      1.91912475	     19.60780302	     -3.59093453	      0.00000000	     -0.08470402	     -0.60558066	      0.48777542	     -0.15730383	     -0.80542228	      0.51826139	     -0.13916023	     -1.47240882	      0.51826139	     -0.09680822	     -1.47240882	      0.42680349	     -0.07865615	     -1.23490009	      0.39631753	     -0.04839988	     -0.93804445	      0.36583157	     -0.60503233	     -6.85044957	      2.71286056	      0.00000000	      0.00000000	     -0.00000000	      0.00000000	      0.00000000	     60.33410586	     -3.05286479	     13.94611112	     31.61150981	     24.10723367	      0.00000000	      5.44333879	     67.62718201	     -3.44114981	     27.32981777	     23.80304549	     44.11018967	      0.00000000	      5.44333879
      0.07500000	    -40.75639100	      2.15251655	     -2.57001492	     -0.18072321	      1.09681078	     -0.00738936	     76.30114889	      0.10502067	      1.15977927	     49.73103093	      0.86797023	      7.18813079	     -6.87573716	      0.00000000	    117.91752696	     -3.62886505	      7.22609091	    108.88411598	      1.90038633	     20.19649871	     -3.59826152	      0.00000000	     -0.08440581	     -0.59125892	      0.48672961	     -0.15675002	     -0.78637436	      0.51715021	     -0.13867030	     -1.43758693	      0.51715021	     -0.09646740	     -1.43758693	      0.42588841	     -0.07837923	     -1.20569518	      0.39546781	     -0.04822948	     -0.91586006	      0.36504721	     -0.60290223	     -6.68843910	      2.70704406	      0.00000000	      0.00000000	     -0.00000000	      0.00000000	      0.00000000	     60.39117473	     -2.99027789	     13.89829441	     31.49782689	     24.13934604	      0.00000000	      5.43837724	     67.66917175	     -3.45117207	     27.32300969	     23.76308388	     44.11898639	      0.00000000	      5.43837724
      0.08300000	    -40.78816378	      1.98119359	     -2.66637786	     -0.18091617	      1.09694599	     -0.00722620	     76.47738372	      0.30858053	      1.33686007	     51.34311142	      0.89610634	      7.21978517	     -7.09805034	      0.00000000	    118.02445171	     -3.65853321	      7.36390231	    107.68661904	      1.87948606	     20.71151501	     -3.57875842	      0.00000000	     -0.08452023	     -0.57610889	      0.48642666	     -0.15696252	     -0.76622482	      0.51682833	     -0.13885829	     -1.40075115	      0.51682833	     -0.09659817	     -1.40075115	      0.42562333	     -0.07848549	     -1.17480124	      0.39522166	     -0.04829486	     -0.89239267	      0.36482000	     -0.60371956	     -6.51705896	      2.70535916	      0.00000000	      0.00000000	     -0.00000000	      0.00000000	      0.00000000	     60.42486334	     -2.91464584	     13.85208750	     31.42625565	     24.18221376	      0.00000000	      5.43251943	     67.72258160	     -3.46863105	     27.30763261	     23.73838273	     44.12760070	      0.00000000	      5.43251943
